# xmcd
#
# Track frame offsets: 
#        150
#        24076
#        39800
#        55701
#        80105
#        101939
#        125960
#        150518
#        175034
#
# Disc length: 2559 seconds
#
# Revision: 0
# Processed by: cddbd v1.5.2PL0 Copyright (c) Steve Scherf et al.
# Submitted via: ExactAudioCopy v0.95b4
#
DISCID=6809fd09
DTITLE=Randy Crawford - Live In Zagreb
DYEAR=1995
DGENRE=R&B
TTITLE0=Rainy Night In Georgia
TTITLE1=One Hello
TTITLE2=You Bring The Sun Out
TTITLE3=Knocking On Heaven's Door
TTITLE4=Almaz
TTITLE5=One Day I'll Fly Away
TTITLE6=Street Life
TTITLE7=Imagine
TTITLE8=Oh Daughter Mine (Bonus Track)
EXTD=
EXTT0=
EXTT1=
EXTT2=
EXTT3=
EXTT4=
EXTT5=
EXTT6=
EXTT7=
EXTT8=
PLAYORDER=
